<svg width="24" height="24" viewBox="0 0 24 24" fill="none" xmlns="http://www.w3.org/2000/svg">
<path d="M3.59708 10.7859L3.51503 11.357H4.092H5C5.13261 11.357 5.25979 11.4097 5.35355 11.5034C5.44732 11.5972 5.5 11.7244 5.5 11.857V17C5.5 17.1326 5.44732 17.2598 5.35355 17.3536C5.25979 17.4473 5.13261 17.5 5 17.5H4C3.13759 17.5 2.5 16.8566 2.5 16.143V12C2.5 6.76214 6.76214 2.5 12 2.5C17.2379 2.5 21.5 6.76214 21.5 12V16.143C21.5 16.8566 20.8624 17.5 20 17.5H19.5V18C19.5 19.9299 17.9299 21.5 16 21.5H10.5V19.5H13.5V20V20.5H14H16C17.3791 20.5 18.5 19.3791 18.5 18V11.857C18.5 11.7244 18.5527 11.5972 18.6464 11.5034C18.7402 11.4097 18.8674 11.357 19 11.357H19.908H20.485L20.4029 10.7859C19.8122 6.67441 16.2754 3.5 12 3.5C7.72465 3.5 4.18778 6.67441 3.59708 10.7859Z" fill="#fff" stroke="#fff"/>
</svg>
